<svg width="106" height="106" viewBox="0 0 106 106" fill="none" xmlns="http://www.w3.org/2000/svg">
<path opacity="0.302" d="M53 0C82.27 0 106 23.73 106 53C106 82.27 82.27 106 53 106C23.73 106 0 82.27 0 53C0 23.73 23.73 0 53 0Z" fill="white"/>
<g opacity="0.8" filter="url(#filter0_d)">
<path d="M53 18C72.33 18 88 33.67 88 53C88 72.33 72.33 88 53 88C33.67 88 18 72.33 18 53C18 33.67 33.67 18 53 18Z" fill="white"/>
</g>
<path opacity="0.902" d="M53 45C57.42 45 61 48.58 61 53C61 57.42 57.42 61 53 61C48.58 61 45 57.42 45 53C45 48.58 48.58 45 53 45Z" fill="#7E5AFF"/>
<defs>
<filter id="filter0_d" x="10" y="10" width="86" height="86" filterUnits="userSpaceOnUse" color-interpolation-filters="sRGB">
<feFlood flood-opacity="0" result="BackgroundImageFix"/>
<feColorMatrix in="SourceAlpha" type="matrix" values="0 0 0 0 0 0 0 0 0 0 0 0 0 0 0 0 0 0 127 0"/>
<feOffset/>
<feGaussianBlur stdDeviation="4"/>
<feColorMatrix type="matrix" values="0 0 0 0 0.690196 0 0 0 0 0.690196 0 0 0 0 0.690196 0 0 0 0.25 0"/>
<feBlend mode="normal" in2="BackgroundImageFix" result="effect1_dropShadow"/>
<feBlend mode="normal" in="SourceGraphic" in2="effect1_dropShadow" result="shape"/>
</filter>
</defs>
</svg>
